# xmcd
#
# Track frame offsets:
#	150
#	15995
#	30578
#	53302
#	67403
#	82038
#	106473
#	123872
#	141685
#	157534
#	179469
#
# Disc length: 2613 seconds
#
# Revision: 1
# Processed by: cddbd v1.5.2PL0 Copyright (c) Steve Scherf et al.
# Submitted via: audiograbber 1.83.01
#
DISCID=8a0a330b
DTITLE=Alexander v. Wangenheim and Wolfgang Scheelen - Blues, Boogies und Ballade
DTITLE=n
DYEAR=2002
DGENRE=
TTITLE0=Lokking For Birds
TTITLE1=Short People
TTITLE2=Piano Man
TTITLE3=Hallelujah
TTITLE4=Into It
TTITLE5=What A Wonderful World
TTITLE6=Honky Tonky Train
TTITLE7=Rock It
TTITLE8=Wellenreiter
TTITLE9=Roll Em Pete
TTITLE10=Have I Told You Lately
EXTD=
EXTT0=
EXTT1=
EXTT2=
EXTT3=
EXTT4=
EXTT5=
EXTT6=
EXTT7=
EXTT8=
EXTT9=
EXTT10=
PLAYORDER=
